HIERARCHY
ROOT Hips
{
	OFFSET 0.000000 0.000000 0.000000
	CHANNELS 6 Xposition Yposition Zposition Xrotation Yrotation Zrotation
	JOINT LeftUpLeg_virtual
	{
		OFFSET 0.000000 0.000000 0.000000
		CHANNELS 3 Xrotation Yrotation Zrotation
		JOINT LeftUpLeg
		{
			OFFSET 10.205400 -3.823500 0.155100
			CHANNELS 3 Xrotation Yrotation Zrotation
			JOINT LeftLeg
			{
				OFFSET 0.708757 -12.982077 0.567790
				CHANNELS 3 Xrotation Yrotation Zrotation
				JOINT LeftFoot
				{
					OFFSET -0.708756 -10.717838 -2.184338
					CHANNELS 3 Xrotation Yrotation Zrotation
					JOINT LeftToeBase
					{
						OFFSET 0.108149 -7.191104 7.560241
						CHANNELS 3 Xrotation Yrotation Zrotation
						JOINT LeftToe_End
						{
							OFFSET 0.070230 0.081724 4.490308
							CHANNELS 3 Xrotation Yrotation Zrotation
							End Site
							{
								OFFSET 0 0 0
							}
						}
					}
				}
			}
		}
	}
	JOINT RightUpLeg_virtual
	{
		OFFSET 0.000000 0.000000 0.000000
		CHANNELS 3 Xrotation Yrotation Zrotation
		JOINT RightUpLeg
		{
			OFFSET -10.205400 -3.823500 0.005500
			CHANNELS 3 Xrotation Yrotation Zrotation
			JOINT RightLeg
			{
				OFFSET -0.708756 -12.982134 0.610632
				CHANNELS 3 Xrotation Yrotation Zrotation
				JOINT RightFoot
				{
					OFFSET 0.708754 -10.717769 -1.945823
					CHANNELS 3 Xrotation Yrotation Zrotation
					JOINT RightToeBase
					{
						OFFSET -0.108140 -7.191069 7.372968
						CHANNELS 3 Xrotation Yrotation Zrotation
						JOINT RightToe_End
						{
							OFFSET -0.070227 0.081735 4.479403
							CHANNELS 3 Xrotation Yrotation Zrotation
							End Site
							{
								OFFSET 0 0 0
							}
						}
					}
				}
			}
		}
	}
	JOINT Spine_virtual
	{
		OFFSET 0.000000 0.000000 0.000000
		CHANNELS 3 Xrotation Yrotation Zrotation
		JOINT Spine
		{
			OFFSET 0.000000 6.876099 0.125700
			CHANNELS 3 Xrotation Yrotation Zrotation
			JOINT Spine1
			{
				OFFSET 0.000000 5.730043 0.104720
				CHANNELS 3 Xrotation Yrotation Zrotation
				JOINT Spine1_split
				{
					OFFSET 0.000000 5.730043 0.104720
					CHANNELS 3 Xrotation Yrotation Zrotation
					JOINT Spine2
					{
						OFFSET 0.000000 5.730043 0.104720
						CHANNELS 3 Xrotation Yrotation Zrotation
						JOINT Neck_virtual
						{
							OFFSET 0.000000 0.000000 0.000000
							CHANNELS 3 Xrotation Yrotation Zrotation
							JOINT Neck
							{
								OFFSET 0.000000 10.314075 0.188496
								CHANNELS 3 Xrotation Yrotation Zrotation
								JOINT Head
								{
									OFFSET 0.000000 7.643700 -2.377400
									CHANNELS 3 Xrotation Yrotation Zrotation
									JOINT HeadTop_End
									{
										OFFSET 0.000000 43.788605 -13.619600
										CHANNELS 3 Xrotation Yrotation Zrotation
										End Site
										{
											OFFSET 0 0 0
										}
									}
								}
							}
						}
						JOINT LeftShoulder_virtual
						{
							OFFSET 0.000000 0.000000 0.000000
							CHANNELS 3 Xrotation Yrotation Zrotation
							JOINT LeftShoulder
							{
								OFFSET 2.196100 4.412489 0.087492
								CHANNELS 3 Xrotation Yrotation Zrotation
								JOINT LeftShoulder_split
								{
									OFFSET 2.196100 4.412489 0.087492
									CHANNELS 3 Xrotation Yrotation Zrotation
									JOINT LeftArm
									{
										OFFSET 8.771219 -2.981674 -0.026999
										CHANNELS 3 Xrotation Yrotation Zrotation
										JOINT LeftForeArm
										{
											OFFSET 8.512804 0.000000 -0.000000
											CHANNELS 3 Xrotation Yrotation Zrotation
											JOINT LeftHand
											{
												OFFSET 18.484802 0.000000 -0.000000
												CHANNELS 3 Xrotation Yrotation Zrotation
												End Site
												{
													OFFSET 0 0 0
												}
											}
										}
									}
								}
							}
						}
						JOINT RightShoulder_virtual
						{
							OFFSET 0.000000 0.000000 0.000000
							CHANNELS 3 Xrotation Yrotation Zrotation
							JOINT RightShoulder
							{
								OFFSET -2.196100 4.412496 0.070690
								CHANNELS 3 Xrotation Yrotation Zrotation
								JOINT RightShoulder_split
								{
									OFFSET -2.196100 4.412496 0.070690
									CHANNELS 3 Xrotation Yrotation Zrotation
									JOINT RightArm
									{
										OFFSET -8.771282 -2.981682 -0.094208
										CHANNELS 3 Xrotation Yrotation Zrotation
										JOINT RightForeArm
										{
											OFFSET -8.494598 0.000000 0.000000
											CHANNELS 3 Xrotation Yrotation Zrotation
											JOINT RightHand
											{
												OFFSET -18.483803 0.000000 0.000001
												CHANNELS 3 Xrotation Yrotation Zrotation
												End Site
												{
													OFFSET 0 0 0
												}
											}
										}
									}
								}
							}
						}
					}
				}
			}
		}
	}
}
MOTION
Frames: 4
Frame Time: 0.03333333
0.751770 28.314775 0.459953 0.000000 0.000000 0.000000 6.260163 -68.447716 9.275337 -30.387266 1.732933 23.276527 45.648774 -11.585359 -6.582726 -19.162989 0.252634 -18.217882 2.800202 0.350006 -0.552738 0.000000 0.000000 0.000000 0.546084 -62.196720 5.468670 -24.433106 4.606954 -44.061366 47.387651 6.928534 0.368223 -25.269173 -6.749429 28.334230 -8.511835 3.339016 -1.418433 0.000000 0.000000 0.000000 -2.432471 -64.869530 1.136104 6.885264 3.669283 -3.994112 6.646302 0.547953 -5.920722 2.110864 -1.317816 0.583345 0.000000 0.000000 0.000000 6.838663 1.152388 -5.169658 -15.132743 23.225669 4.812160 -2.118386 15.971629 1.610428 0.000000 0.000000 0.000000 6.433449 0.614261 -5.519100 -6.368477 -20.071334 -1.291517 -8.834016 1.732695 -2.533845 -15.193652 20.595869 -27.782998 -0.055645 -33.064041 1.646477 0.000000 0.000000 0.000000 6.409617 1.171971 -5.293527 -4.063003 3.461516 6.743954 1.623491 -0.503982 -1.028515 -37.879867 -22.937179 31.027675 -171.593039 60.319327 169.316018 0.000000 0.000000 0.000000 
0.054821 28.441050 0.543335 0.000000 0.000000 0.000000 5.535547 -68.283723 8.646021 -30.410126 4.985360 25.330153 45.458922 -13.055449 -7.182326 -18.364885 -0.823913 -16.621368 2.809219 0.328458 0.138892 0.000000 0.000000 0.000000 1.253255 -62.915605 5.881125 -26.094811 5.883045 -42.834360 53.155486 7.964832 0.244919 -24.383183 -4.851845 25.699056 -4.082850 3.591421 -1.694235 0.000000 0.000000 0.000000 -1.914783 -65.089148 2.190713 6.567527 3.149188 -4.154679 5.864472 0.123061 -6.570507 0.754791 -1.980909 -0.142534 0.000000 0.000000 0.000000 5.775492 0.927442 -6.014707 -13.883319 23.102929 3.422483 -1.212210 16.138234 1.257856 0.000000 0.000000 0.000000 5.683452 0.374233 -6.040082 -6.029805 -19.429424 -0.290805 -8.941525 -0.214404 -0.825806 -16.833476 18.364340 -27.619152 0.374025 -35.499686 1.549600 0.000000 0.000000 0.000000 5.307670 0.696926 -5.869422 -4.256918 1.781238 6.425529 1.685949 -1.067414 -0.370839 -38.521710 -23.448133 31.339838 -172.610464 56.838266 170.659079 0.000000 0.000000 0.000000 
-1.288051 28.651579 0.622246 0.000000 0.000000 0.000000 5.006764 -66.237037 8.315292 -30.410683 8.917153 27.881963 42.536140 -13.941680 -8.215046 -17.111255 -1.768885 -16.557360 3.077229 0.315833 0.927899 0.000000 0.000000 0.000000 2.202046 -63.222731 6.807603 -31.382756 8.671576 -41.844666 62.114055 12.301712 -0.603470 -17.905633 -0.665965 30.549384 -8.211047 4.016631 -3.763050 0.000000 0.000000 0.000000 0.297459 -64.641245 4.586800 6.422470 2.611534 -3.789918 4.573975 -0.591147 -8.238517 -0.290365 -1.981041 -0.323359 0.000000 0.000000 0.000000 4.171042 0.325837 -7.696002 -12.271616 22.736079 0.627497 -0.714770 15.622019 1.893124 0.000000 0.000000 0.000000 4.305329 -0.200823 -7.545460 -5.610770 -17.571649 1.507722 -8.175378 -1.077670 0.367174 -19.006586 16.009496 -26.942214 0.265896 -39.259261 0.857612 0.000000 0.000000 0.000000 3.515865 -0.147919 -7.389927 -4.419278 0.499272 5.293446 3.200413 0.112905 0.598921 -41.072632 -28.694642 31.567208 -173.520041 49.901980 172.346518 0.000000 0.000000 0.000000 
-3.085956 28.766163 0.661837 0.000000 0.000000 0.000000 5.240865 -63.384033 8.762794 -30.033629 12.836892 30.411547 38.095940 -14.203854 -9.173417 -15.071468 -2.570258 -18.516214 2.311597 0.300105 1.625390 0.000000 0.000000 0.000000 3.811864 -62.579040 8.555115 -37.875564 12.437967 -41.123958 70.707136 17.631131 -2.305431 -11.098095 4.740961 37.988693 -16.918406 4.622981 -6.241482 0.000000 0.000000 0.000000 3.533168 -63.325471 7.810897 6.460866 2.086692 -3.130724 3.124005 -1.349408 -10.459142 -0.535937 -1.561700 -0.129694 0.000000 0.000000 0.000000 2.371175 -0.419002 -9.789939 -10.449545 22.064742 -2.982582 -0.817139 14.341814 3.185896 0.000000 0.000000 0.000000 2.584758 -0.902648 -9.616248 -5.406667 -14.761314 3.708213 -7.365405 -1.259462 1.059317 -21.794994 14.295476 -25.724316 -0.177102 -44.351188 -0.094575 0.000000 0.000000 0.000000 1.389956 -1.023120 -9.466605 -4.611454 -0.016476 3.441326 5.624105 2.371051 1.039633 -46.149522 -36.355355 29.670796 -173.664649 43.563049 173.407807 0.000000 0.000000 0.000000 
